<?xml version="1.0" encoding="utf-8"?>
<!-- Svg Vector Icons : http://www.onlinewebfonts.com/icon -->
<!DOCTYPE svg PUBLIC "-//W3C//DTD SVG 1.1//EN" "http://www.w3.org/Graphics/SVG/1.1/DTD/svg11.dtd">
<svg version="1.1" xmlns="http://www.w3.org/2000/svg" xmlns:xlink="http://www.w3.org/1999/xlink" x="0px" y="0px" viewBox="0 0 1000 1000" enable-background="new 0 0 1000 1000" xml:space="preserve">
<metadata> Svg Vector Icons : http://www.onlinewebfonts.com/icon </metadata>
<g><path d="M138.5,232.4l167.7,54.9l-19.3,59.1l114.4,6.2l-28.7,30.2l-95.6-6.1l-72,219.8l40.8,25.2c1.1-8,2.4-13.9,2.4-13.9s38.2,8.1,39.8,19.4c0.6,4-0.6,11.4-2.4,19.2l2.4,1.5l-4.7,7.5c-3,11-6.2,20.7-6.2,20.7s-22-2.7-29.6-17.3c-0.4-0.8-0.8-1.6-1.1-2.6l-50.8-31.5L177.7,680L10,625.1L138.5,232.4L138.5,232.4z M728.3,279.3l18.1,62.9L660,368.8l-88.2-40.9l-126.9,10.8l-77.5,73.2c0,0,7,31.8,25.3,31.8c18.3,0,56.5-40.4,56.5-40.4l92.5,4.3l187.6,110.9l0,0l0,0l2,1.1c10.6,8.9-1.2,53-16.7,57.9L571.3,510l-13,27.5l118.1,55.6c0.3,3,0,6.6-0.9,10.3c-1.1,4.8-3.3,9.6-6.2,14c-3.2,4.6-7.4,8.4-12.5,10.5l-143.3-67.5l-13,27.5L626,647.2c5.4,3.6-5.9,31.7-18.3,37l-135.7-63.9l-13,27.5l106.3,50.1c2.2,7.5-5.8,32.1-18.3,37.5L471,699.6c1.6-9.9,2.7-18.3,2.1-21.9c-1.7-12.1-42.8-20.8-42.8-20.8s-1.6,9.6-3,22.2l-15.9-7.5l-1.4,3c2.7-15.3,4.5-28.7,3.7-34.2c-2.3-15.8-55.9-27.2-55.9-27.2s-13.6,82.3-3,102.7c10.6,20.4,41.5,24.2,41.5,24.2s4.1-17.5,8.4-38l20.3,9.5c-0.1,10.2,0.6,19.2,3.1,23.9c8.1,15.6,31.8,18.5,31.8,18.5s2.4-10.4,5.2-23.5l74.3,35l4.5,2.2l4.9-1c24.9-4.9,43.8-29.6,46.4-54.6l4.8,2.3l4.6,2.1l4.9-0.9c15.1-3,26.6-12.1,34.5-23.5c6.2-9,10.7-20.7,11.8-32.2l2.5-0.5c15.6-3,27.7-12.6,35.9-24.5l0.2-0.3l126.7-31.6l12.3,43L990,600.9L884.8,234.4L728.3,279.3L728.3,279.3z M302.7,613.2c0,0-9.7,58.6-2.2,73.2c7.5,14.6,29.6,17.2,29.6,17.2s14-59.7,12.4-71C340.9,621.2,302.7,613.2,302.7,613.2z"/></g>
</svg>